<?xml version="1.0" encoding="UTF-8"?>
<svg id="Layer_2" data-name="Layer 2" xmlns="http://www.w3.org/2000/svg" xmlns:xlink="http://www.w3.org/1999/xlink" viewBox="0 0 1440 332">
  <defs>
    <style>
      .cls-1, .cls-2, .cls-3 {
        fill: none;
      }

      .cls-4 {
        font-family: BeVietnam-Bold, 'Be Vietnam';
        font-size: 48px;
      }

      .cls-4, .cls-5 {
        font-weight: 700;
      }

      .cls-6 {
        fill: #fff;
      }

      .cls-7 {
        fill: #fdc37d;
      }

      .cls-8 {
        fill: #7bd2f5;
      }

      .cls-9, .cls-10 {
        fill: #231f20;
      }

      .cls-11 {
        fill: #a2def7;
      }

      .cls-5 {
        font-family: Comfortaa-Bold, Comfortaa;
        font-size: 20px;
      }

      .cls-10 {
        font-family: Comfortaa-Light, Comfortaa;
        font-size: 14px;
        font-weight: 300;
      }

      .cls-2 {
        clip-path: url(#clippath);
      }

      .cls-3 {
        opacity: .2;
      }
    </style>
    <clipPath id="clippath">
      <rect class="cls-1" width="1440" height="332"/>
    </clipPath>
  </defs>
  <g id="Dentist_Page">
    <g class="cls-2">
      <rect class="cls-6" x="0" y="-88" width="1440" height="420"/>
      <text class="cls-4" transform="translate(526.02 143.38)"><tspan class="cls-9"><tspan x="0" y="0">Bảng giá dự kiến</tspan></tspan><tspan class="cls-7"><tspan x="58.82" y="57.6">các dịch vụ</tspan></tspan></text>
      <text class="cls-5" transform="translate(606.53 80.13)"><tspan class="cls-9" x="0" y="0">Nha khoa </tspan><tspan class="cls-7" x="107.52" y="0">confi</tspan><tspan class="cls-8" x="159.3" y="0">dental</tspan></text>
      <g class="cls-3">
        <path class="cls-11" d="m1316.84,226.45c-101.45-.58-186.78-65.04-215.76-162.32-4.35-14.59-6.45-29.24-6.69-44.22-.26-15.99-4.11-36.82,19-38.09,23.17-1.27,21.09,19.46,22.83,35.64,10.16,94.7,84.01,164.71,175.88,167.12,96.78,2.54,175.66-63.63,191.18-160.57,1.5-9.38.85-19.23,3.28-28.3,2.7-10.07,10.39-15.86,21.53-14.49,9.15,1.12,15.2,7.16,16.6,15.65,2.91,17.6,1.6,35.23-2.63,52.66-28.64,117.87-130.83,181.86-225.22,176.93Z"/>
        <path class="cls-11" d="m1319.77,128.9c-26.2,0-49.81-6.13-70.81-18.4-21-12.26-37.63-28.98-49.89-50.15-12.27-21.17-18.4-45.02-18.4-71.56s5.62-50.31,16.88-71.31c11.25-20.99,26.62-37.63,46.11-49.89,19.48-12.26,41.49-18.4,66.02-18.4,19.82,0,38.13,4.12,54.93,12.35,16.8,8.23,30.91,19.4,42.33,33.51v-136.07c0-7.72,2.43-13.94,7.31-18.65,4.87-4.7,11-7.06,18.4-7.06s13.94,2.36,18.65,7.06c4.7,4.71,7.06,10.92,7.06,18.65V-11.2c0,26.54-6.13,50.4-18.4,71.56-12.27,21.17-28.81,37.89-49.64,50.15-20.84,12.27-44.35,18.4-70.56,18.4Zm0-45.36c17.14,0,32.42-4.11,45.86-12.35,13.43-8.23,24.02-19.57,31.75-34.02,7.72-14.44,11.59-30.57,11.59-48.38s-3.87-34.27-11.59-48.38c-7.73-14.11-18.32-25.28-31.75-33.52-13.44-8.23-28.73-12.35-45.86-12.35s-32,4.12-45.61,12.35c-13.61,8.24-24.36,19.4-32.25,33.52-7.9,14.11-11.84,30.24-11.84,48.38s3.94,33.94,11.84,48.38c7.89,14.45,18.65,25.79,32.25,34.02,13.61,8.24,28.81,12.35,45.61,12.35Z"/>
      </g>
      <g class="cls-3">
        <path class="cls-11" d="m59.63,541.85c-101.45-.58-186.78-65.04-215.76-162.32-4.35-14.59-6.45-29.24-6.69-44.22-.26-15.99-4.11-36.82,19-38.09,23.17-1.27,21.09,19.46,22.83,35.64,10.16,94.7,84.01,164.71,175.88,167.12,96.78,2.54,175.66-63.63,191.18-160.57,1.5-9.38.85-19.23,3.28-28.3,2.7-10.07,10.39-15.86,21.53-14.49,9.15,1.12,15.2,7.16,16.6,15.65,2.91,17.6,1.6,35.23-2.63,52.66-28.64,117.87-130.83,181.86-225.22,176.93Z"/>
        <path class="cls-11" d="m269.32,203.85c16.88.54,28.25,12.03,27.82,28.11-.41,15.19-13.42,28.88-27.93,29.41-16.07.58-30.4-14.68-29.65-31.57.72-16.11,12.63-26.5,29.76-25.95Z"/>
        <path class="cls-11" d="m62.55,444.3c-26.2,0-49.81-6.13-70.81-18.4-21-12.26-37.63-28.98-49.89-50.15-12.27-21.17-18.4-45.02-18.4-71.56s5.62-50.31,16.88-71.31c11.25-20.99,26.62-37.63,46.11-49.89,19.48-12.26,41.49-18.4,66.02-18.4,19.82,0,38.13,4.12,54.93,12.35,16.8,8.23,30.91,19.4,42.33,33.51V74.39c0-7.72,2.43-13.94,7.31-18.65,4.87-4.7,11-7.06,18.4-7.06s13.94,2.36,18.65,7.06c4.7,4.71,7.06,10.92,7.06,18.65v229.81c0,26.54-6.13,50.4-18.4,71.56-12.27,21.17-28.81,37.89-49.64,50.15-20.84,12.27-44.35,18.4-70.56,18.4Zm0-45.36c17.14,0,32.42-4.11,45.86-12.35,13.43-8.23,24.02-19.57,31.75-34.02,7.72-14.44,11.59-30.57,11.59-48.38s-3.87-34.27-11.59-48.38c-7.73-14.11-18.32-25.28-31.75-33.52-13.44-8.23-28.73-12.35-45.86-12.35s-32,4.12-45.61,12.35c-13.61,8.24-24.36,19.4-32.25,33.52-7.9,14.11-11.84,30.24-11.84,48.38s3.94,33.94,11.84,48.38c7.89,14.45,18.65,25.79,32.25,34.02,13.61,8.24,28.81,12.35,45.61,12.35Z"/>
      </g>
      <text class="cls-10" transform="translate(526.83 246.49)"><tspan x="0" y="0">Chúng tôi cung cấp các loại dịch vụ nha khoa uy tín, </tspan><tspan x="-35.71" y="20">đảm bảo chất lượng thẩm mỹ, phục hồi và nha khoa tổng quát</tspan></text>
    </g>
  </g>
</svg>